<svg fill="currentColor" fill-rule="evenodd" height="1em" style="flex:none;line-height:1" viewBox="0 0 24 24" width="1em" xmlns="http://www.w3.org/2000/svg">
  <title>GitHub Copilot</title>
  <path d="M12 2C6.48 2 2 6.48 2 12s4.48 10 10 10 10-4.48 10-10S17.52 2 12 2zm-1.2 4.5c.9 0 1.6.7 1.6 1.6 0 .9-.7 1.6-1.6 1.6-.9 0-1.6-.7-1.6-1.6 0-.9.7-1.6 1.6-1.6zm2.4 0c.9 0 1.6.7 1.6 1.6 0 .9-.7 1.6-1.6 1.6-.9 0-1.6-.7-1.6-1.6 0-.9.7-1.6 1.6-1.6zM8.2 11.8c1.1-.3 2.3-.5 3.8-.5s2.7.2 3.8.5c.5.1.9.6.8 1.1l-.4 2.1c-.1.4-.4.7-.8.8-1.2.3-2.4.5-3.4.5s-2.2-.2-3.4-.5c-.4-.1-.7-.4-.8-.8l-.4-2.1c-.1-.5.3-1 .8-1.1z"/>
  <path d="M7 16.2h10v1.6c0 .7-.6 1.2-1.3 1.2H8.3c-.7 0-1.3-.5-1.3-1.2v-1.6z" opacity=".85"/>
</svg>
